<svg width="32" height="32" viewBox="0 0 32 32" fill="none" xmlns="http://www.w3.org/2000/svg">
<g clip-path="url(#clip0_19033_67116)">
<path fill-rule="evenodd" clip-rule="evenodd" d="M20.3602 4.76874H19.9626C18.5632 4.76874 17.2238 5.02495 15.9887 5.4932C16.9464 5.85543 17.8422 6.34488 18.6533 6.94212C19.0809 6.88028 19.5191 6.84847 19.9626 6.84847H20.3602C25.6328 6.84847 29.9072 11.1246 29.9072 16.3972V25.1491H19.9626C19.5191 25.1491 19.0826 25.1173 18.655 25.0554C17.8422 25.6527 16.9464 26.1421 15.9887 26.5044C17.2238 26.9726 18.5632 27.2288 19.9626 27.2288H31.9869V16.3972C31.9869 9.97603 26.7814 4.76874 20.3602 4.76874ZM15.9869 7.75493C15.1599 7.3556 14.2641 7.07641 13.3223 6.94212C10.5393 8.98652 8.73344 12.2819 8.73344 15.9997C8.73344 19.7174 10.5393 23.011 13.3205 25.0554C14.2623 24.9211 15.1599 24.6437 15.9869 24.2444C12.9247 22.7637 10.8132 19.629 10.8132 15.9997C10.8132 12.3703 12.9247 9.23566 15.9869 7.75493Z" fill="#FF8C68"/>
<path fill-rule="evenodd" clip-rule="evenodd" d="M18.6533 6.94212C17.7115 7.07641 16.8138 7.3556 15.9869 7.75493C19.0491 9.2339 21.1624 12.3703 21.1624 15.9997C21.1624 19.629 19.0491 22.7637 15.9869 24.2444C16.8138 24.6437 17.7115 24.9211 18.655 25.0554C21.4363 23.011 23.2421 19.7174 23.2421 15.9997C23.2421 12.2819 21.4363 8.98652 18.6533 6.94212ZM12.013 25.1491H2.06663V16.3972C2.06663 11.1246 6.34272 6.84847 11.6154 6.84847H12.013C12.4565 6.84847 12.8947 6.88028 13.3223 6.94212C14.1351 6.34488 15.031 5.85543 15.9887 5.4932C14.7535 5.02495 13.4124 4.76874 12.013 4.76874H11.6154C5.19418 4.76874 -0.0131073 9.97603 -0.0131073 16.3972V27.2288H12.013C13.4124 27.2288 14.7535 26.9726 15.9887 26.5044C15.0292 26.1421 14.1333 25.6527 13.3205 25.0554C12.8929 25.1173 12.4565 25.1491 12.013 25.1491Z" fill="#4B94D8"/>
<path fill-rule="evenodd" clip-rule="evenodd" d="M18.6533 6.94209C17.7115 7.07638 16.8138 7.35556 15.9869 7.7549C15.1599 7.35556 14.2641 7.07638 13.3223 6.94209C14.1351 6.34485 15.031 5.85539 15.9887 5.49316C16.9464 5.85539 17.8422 6.34485 18.6533 6.94209Z" fill="#FAD1E8"/>
<path fill-rule="evenodd" clip-rule="evenodd" d="M18.655 25.0554C17.8422 25.6526 16.9464 26.1421 15.9887 26.5043C15.0292 26.1421 14.1333 25.6526 13.3205 25.0554C14.2623 24.9211 15.16 24.6437 15.9869 24.2443C16.8138 24.6437 17.7115 24.9211 18.655 25.0554Z" fill="#FAD1E8"/>
<path d="M31.5734 5.18398C31.8491 5.45963 31.9869 5.79359 31.9869 6.18232C31.9869 6.57106 31.8455 6.92269 31.5628 7.19657C31.2872 7.46161 30.9585 7.59591 30.5733 7.59591C30.1881 7.59591 29.84 7.45985 29.5679 7.18773C29.2958 6.91562 29.1597 6.57989 29.1597 6.18232C29.1597 5.78475 29.3064 5.42605 29.6015 5.15217C29.8771 4.89596 30.2022 4.76874 30.5733 4.76874C30.9444 4.76874 31.296 4.90656 31.5717 5.18221L31.5734 5.18398ZM30.5751 5.01258C30.25 5.01258 29.9743 5.13097 29.7446 5.36598C29.5202 5.59568 29.4071 5.86957 29.4071 6.18409C29.4071 6.49861 29.522 6.79016 29.7499 7.0181C29.9778 7.24781 30.2517 7.3609 30.5751 7.3609C30.8984 7.3609 31.1706 7.24604 31.3985 7.01634C31.6264 6.78486 31.7395 6.50745 31.7395 6.18409C31.7395 5.86073 31.6264 5.59745 31.4003 5.36598C31.1706 5.13097 30.8967 5.01258 30.5751 5.01258ZM30.3648 6.41556V6.97039H29.9549V5.40308C30.0521 5.40308 30.1969 5.40308 30.3913 5.40308C30.5857 5.40308 30.6935 5.40308 30.7147 5.40662C30.8384 5.41545 30.9408 5.44196 31.0239 5.4879C31.1635 5.56388 31.2324 5.68933 31.2324 5.8625C31.2324 5.99502 31.1953 6.08867 31.1228 6.14875C31.0504 6.20883 30.9585 6.2424 30.8507 6.25477C30.9497 6.27597 31.0239 6.30601 31.0734 6.34488C31.1653 6.4191 31.2112 6.53572 31.2112 6.69651V6.8361C31.2112 6.85201 31.2112 6.86614 31.2147 6.88205C31.2183 6.89795 31.22 6.91208 31.2253 6.92799L31.2395 6.97216H30.849C30.8366 6.92269 30.8278 6.85024 30.8242 6.75482C30.8207 6.65941 30.8119 6.5958 30.7995 6.56222C30.7783 6.50745 30.7412 6.46857 30.6846 6.44737C30.6546 6.435 30.6069 6.42616 30.545 6.42263L30.4549 6.41733H30.3683L30.3648 6.41556ZM30.5256 6.13461C30.621 6.13461 30.697 6.11518 30.75 6.0763C30.803 6.03743 30.8313 5.97558 30.8313 5.89077C30.8313 5.80595 30.7889 5.74588 30.7041 5.71231C30.6475 5.6911 30.568 5.6805 30.4655 5.6805H30.3666V6.13461H30.5256Z" fill="white"/>
</g>
<defs>
<clipPath id="clip0_19033_67116">
<rect width="32" height="32" fill="white"/>
</clipPath>
</defs>
</svg>
